#N canvas 464 -637 458 573 10;
#X msg 51 336 devices;
#X floatatom 116 330 5 0 0 0 - - -;
#X obj 118 355 t f b;
#X msg 118 382 open \$1;
#X msg 179 383 close;
#X msg 354 330 close;
#X obj 99 434 arduino 2;
#X obj 97 492 route 0 1 2 3 4 5 6 7;
#X obj 98 463 route analog;
#X floatatom 120 526 5 0 0 0 - - -;
#X msg 168 324 analogIns 0 1;
#X connect 0 0 6 0;
#X connect 1 0 2 0;
#X connect 2 0 3 0;
#X connect 2 1 4 0;
#X connect 3 0 6 0;
#X connect 4 0 6 0;
#X connect 5 0 6 0;
#X connect 6 0 8 0;
#X connect 7 0 9 0;
#X connect 8 0 7 0;
#X connect 10 0 6 0;
