#N canvas 449 -1001 926 828 10;
#X msg 97 -344 devices;
#X floatatom 162 -350 5 0 0 0 - - -;
#X obj 164 -325 t f b;
#X msg 164 -298 open \$1;
#X msg 302 -302 close;
#X msg 414 -293 close;
#X obj 214 -186 arduino 2;
#X obj 212 -128 route 0 1 2 3 4 5 6 7;
#X obj 213 -157 route analog;
#X floatatom 178 -70 5 0 0 0 - - -;
#X msg 229 -344 pinMode 9 1;
#X msg 316 -365 analogIns 0 1;
#X msg 387 -343 analogIns 1 1;
#X floatatom 274 -91 5 0 0 0 - - -;
#X obj 177 -39 > 0.5;
#X obj 177 1 sel 0 1;
#X msg 202 58 digital 9 1;
#X msg 121 59 digital 9 0;
#X obj 165 101 s msg;
#X obj 68 -276 r msg;
#X obj 382 30 output~;
#X obj 448 -74 osc~;
#X obj 429 -165 expr if($f1 > 0.56 \, 523 \, if($f1 > 0.52 \, 494 \,
if($f1 > 0.48 \, 440 \, if($f1 > 0.44 \, 392 \, if($f1 > 0.4 \, 349
\, if($f1 > 0.36 \, 330 \, if($f1 > 0.32 \, 294 \, if($f1 > 0.25 \,
262 \, 0))))))));
#X connect 0 0 6 0;
#X connect 1 0 2 0;
#X connect 2 0 3 0;
#X connect 2 1 4 0;
#X connect 3 0 6 0;
#X connect 4 0 6 0;
#X connect 5 0 6 0;
#X connect 6 0 8 0;
#X connect 7 0 9 0;
#X connect 7 1 13 0;
#X connect 8 0 7 0;
#X connect 9 0 14 0;
#X connect 10 0 6 0;
#X connect 11 0 6 0;
#X connect 12 0 6 0;
#X connect 13 0 22 0;
#X connect 14 0 15 0;
#X connect 15 0 17 0;
#X connect 15 1 16 0;
#X connect 16 0 18 0;
#X connect 17 0 18 0;
#X connect 19 0 6 0;
#X connect 21 0 20 0;
#X connect 21 0 20 1;
#X connect 22 0 21 0;
